<svg height="512" viewBox="0 0 512 512" width="512" xmlns="http://www.w3.org/2000/svg"><path d="m213.333333 0c-117.820373 0-213.333333 95.51168-213.333333 213.333333 0 117.820374 95.51296 213.333334 213.333333 213.333334 117.821654 0 213.333334-95.51296 213.333334-213.333334 0-117.821653-95.51168-213.333333-213.333334-213.333333zm0 384c-94.105386 0-170.6666663-76.56128-170.6666663-170.666667 0-94.105386 76.5612803-170.6666663 170.6666663-170.6666663 94.106667 0 170.666667 76.5612803 170.666667 170.6666663 0 94.105387-76.56 170.666667-170.666667 170.666667zm26.713387-256c0 15.46752-11.261653 26.666667-26.49664 26.666667-15.851307 0-26.836693-11.199147-26.836693-26.96256 0-15.150507 11.282773-26.370774 26.836693-26.370774 15.234987 0 26.49664 11.220267 26.49664 26.666667zm-48 64h42.666667v128h-42.666667z" fill-rule="evenodd" transform="translate(42.666667 42.666667)"/></svg>